<svg aria-hidden="true" style="position: absolute; width: 0; height: 0; overflow: hidden;" version="1.1"
    xmlns="http://www.w3.org/2000/svg" xmlns:xlink="http://www.w3.org/1999/xlink">
    <defs>
        <symbol id="icon-cow-face" viewBox="0 0 24 24">
            <path fill="#ffb903" style="fill:var(--color4, #ffb903)"
                d="M14.004 5.004s1.067-2.691 2.297-2.454c1.372.264.607 3.51.607 3.51l-2.904-1.056zM10.363 4.554s-1.294-2.561-2.376-2.19-.291 3.748-.291 3.748l2.666-1.558z" />
            <path fill="#dfdfdf" style="fill:var(--color5, #dfdfdf)"
                d="M8.989 4.74s.369-.448 3.457-.343 4.804 1.189 4.804 1.189 1.065-.816 2.104-1.17c1.543-.525 3.619.358 3.782.696.126.257-.581 2.544-1.504 3.326-1.029.872-2.138.817-2.138.817s-.244 1.603-.291 2.798c-.026.686.067 1.403.186 1.768.238.739.373 1.247.491 2.152.099.756.116 1.489.116 1.489L7.749 14.374 8.988 4.74z" />
            <path fill="#bc8954" style="fill:var(--color6, #bc8954)"
                d="M7.273 14.164s1.918-.51 2.428-.784c.435-.232 2.878-1.303 3.062-4.601s-2.145-4.258-2.462-4.339c-.317-.079-1.461.229-2.13.563-.285.143-.898.555-.898.555S6.058 4.29 4.159 4.107C2.26 3.921.833 4.924.807 5.058c-.026.131.713 2.724 2.064 3.626.394.262.9.381 1.247.428.907.124 1.254.011 1.254.011s-.131 1.399-.157 2.111c-.026.712-.041 1.719-.124 2.447-.053.467-.686 1.706-.703 2.621-.011.608 2.886-2.137 2.886-2.137z" />
            <path fill="#ffd3b0" style="fill:var(--color7, #ffd3b0)"
                d="M12.326 13.952c2.28.054 2.811-.343 4.365-.238s3.534 1.742 3.347 4.091-2.141 4.039-4.23 4.513c-2.089.474-6.748.529-8.944-.66-2.205-1.193-2.677-2.798-2.704-4.303s1.097-3.668 3.533-3.93c2.436-.263 2.383.474 4.633.527zM18.36 7.433c-.39-.683 0-1.761 1.232-2.042s2.464.281 2.464.281-.377 1.444-1.232 2.006c-.722.476-1.901.739-2.464-.246zM4.704 5.462c-1.097-.341-2.524.103-2.524.103s.045.634.495 1.247c.27.368.673.808 1.311 1.018 1.496.493 2.055-.397 2.177-.803.126-.405-.103-1.144-1.459-1.566z" />
            <path fill="#0a0a0a" style="fill:var(--color8, #0a0a0a)"
                d="M10.28 10.885c.101-.702-.263-1.336-.813-1.415s-1.079.426-1.18 1.128c-.101.702.263 1.336.813 1.415s1.079-.426 1.18-1.128zM15.88 12.096c.549-.086.906-.724.797-1.426s-.643-1.202-1.193-1.116c-.549.085-.906.724-.797 1.426s.643 1.202 1.193 1.116z" />
            <path fill="#2e2f31" style="fill:var(--color9, #2e2f31)"
                d="M13.714 18.66c-.563-.441-.247-1.603.686-2.252.986-.686 2.012-.435 2.199-.017.246.546-.036.879-.334 1.108-.283.216-.669.176-.915.317s-.352.51-.686.81c-.309.276-.763.178-.951.034zM7.59 16.477c.176-.791 1.438-.761 2.34-.071.952.729 1.144 1.761.739 2.111-.461.401-.907.201-1.185-.039-.27-.232-.366-.42-.576-.613-.208-.191-.581-.248-.968-.474-.356-.208-.426-.576-.351-.913z" />
        </symbol>

    </defs>
</svg>